<svg id="Capa_1" enable-background="new 0 0 512 512" height="512" viewBox="0 0 512 512" width="512" xmlns="http://www.w3.org/2000/svg"><path d="m411.959 76.895c-92.525-92.525-242.538-92.525-335.064 0s-92.525 242.538 0 335.064l-28.72 28.72 63.822 63.822 392.503-392.504-63.822-63.822zm-143.599 143.599c-13.218-13.218-34.648-13.218-47.866 0s-13.218 34.648 0 47.866l-79.777 79.777c-57.186-57.186-57.186-150.234 0-207.42s150.234-57.186 207.42 0z" fill="#fcdd2e"/><path d="m397.189 91.664 14.77-14.77c-92.525-92.525-242.538-92.525-335.064 0-3.889 3.889-7.601 7.889-11.163 11.972 90.175-78.658 225.704-77.622 314.668 3.136 4.816 4.373 12.19 4.262 16.789-.338z" fill="#f9c301"/><path d="m417.543 71.311 30.747 30.747c4.734 4.734 4.734 12.409 0 17.143l-360.796 360.796 24.503 24.503 392.503-392.503-63.822-63.822z" fill="#f9c301"/><path d="m119.769 486.121-7.772 7.772-53.216-53.215 23.417-23.416c1.407-1.406 2.197-3.314 2.197-5.303s-.79-3.897-2.196-5.303c-83.724-83.725-90.387-215.853-15.499-307.342 2.624-3.205 2.152-7.931-1.053-10.554-3.206-2.623-7.931-2.154-10.555 1.053-38.188 46.654-57.657 105.653-54.82 166.132 2.738 58.39 26.144 113.47 66.098 155.933l-23.497 23.497c-1.407 1.406-2.197 3.314-2.197 5.303s.79 3.897 2.196 5.303l63.822 63.822c1.465 1.465 3.384 2.197 5.304 2.197 1.919 0 3.839-.732 5.303-2.197l13.076-13.076c2.93-2.929 2.93-7.677.001-10.606-2.93-2.929-7.678-2.929-10.609 0z"/><path d="m225.797 273.663c2.929-2.929 2.929-7.678 0-10.606-10.272-10.272-10.272-26.987 0-37.26 4.976-4.977 11.592-7.717 18.63-7.717 7.037 0 13.653 2.74 18.629 7.717 1.407 1.407 3.314 2.197 5.304 2.197s3.896-.79 5.304-2.197l42.942-42.943c2.929-2.929 2.929-7.678 0-10.606s-7.677-2.93-10.607 0l-38.115 38.116c-6.846-4.736-14.955-7.284-23.456-7.284-11.045 0-21.428 4.301-29.237 12.11-14.311 14.311-15.917 36.587-4.821 52.687l-69.511 69.512c-6.529-7.265-12.149-15.06-16.878-23.234-.014-.025-.024-.051-.038-.076-.023-.041-.05-.077-.074-.116-30.669-53.2-23.29-122.502 22.152-167.943 52.483-52.483 136.8-54.204 191.369-5.162l-6.298 6.298c-2.93 2.929-2.93 7.677-.001 10.606s7.678 2.93 10.606 0l24.508-24.507c2.93-2.929 2.93-7.677.001-10.606s-7.678-2.93-10.606 0l-7.592 7.592c-6.887-6.255-14.207-11.777-21.859-16.561l1.208-2.043c2.108-3.565.927-8.165-2.639-10.273-3.565-2.108-8.164-.927-10.273 2.638l-1.396 2.361c-6.989-3.467-14.187-6.37-21.528-8.712l2.784-10.39c1.072-4.001-1.302-8.113-5.303-9.186-4.001-1.074-8.114 1.302-9.186 5.304l-2.79 10.415c-8.872-1.906-17.881-3.018-26.913-3.348l.031-2.989c.043-4.142-3.28-7.534-7.422-7.577-.026 0-.054 0-.08 0-4.105 0-7.455 3.307-7.498 7.422l-.034 3.32c-7.813.469-15.597 1.523-23.279 3.172l-2.791-10.415c-1.071-4.001-5.183-6.375-9.186-5.304-4.001 1.072-6.375 5.185-5.303 9.186l2.784 10.39c-8.413 2.684-16.64 6.103-24.578 10.264l-1.572-2.79c-2.033-3.608-6.605-4.886-10.216-2.853-3.608 2.033-4.886 6.607-2.853 10.216l1.712 3.039c-6.614 4.343-12.963 9.249-18.982 14.714l-7.592-7.592c-2.928-2.93-7.677-2.929-10.606 0s-2.929 7.678.001 10.606l7.592 7.591c-5.938 6.538-11.206 13.47-15.819 20.703l-2.785-1.647c-3.562-2.108-8.164-.927-10.272 2.638-2.109 3.565-.928 8.165 2.638 10.273l2.985 1.765c-3.74 7.373-6.856 14.983-9.336 22.755l-10.39-2.784c-4.001-1.071-8.113 1.302-9.186 5.303-1.072 4.001 1.302 8.114 5.303 9.186l10.416 2.791c-1.793 8.35-2.893 16.82-3.291 25.318l-3.045-.032c-4.146-.066-7.535 3.278-7.579 7.421-.043 4.142 3.279 7.535 7.421 7.578l3.227.034c.415 8.349 1.505 16.671 3.267 24.875l-10.416 2.791c-4.001 1.072-6.375 5.185-5.303 9.186.897 3.351 3.928 5.561 7.239 5.561.643 0 1.296-.083 1.946-.257l10.39-2.784c2.545 7.977 5.76 15.783 9.633 23.337l-2.159 1.217c-3.608 2.033-4.886 6.607-2.853 10.216 1.378 2.445 3.921 3.82 6.541 3.82 1.247 0 2.512-.312 3.675-.967l2.288-1.289c4.528 7.034 9.679 13.781 15.466 20.153l-7.592 7.591c-2.93 2.929-2.93 7.677-.001 10.606 1.465 1.465 3.384 2.197 5.304 2.197 1.919 0 3.839-.732 5.303-2.197z"/><path d="m509.804 106.694-63.822-63.822c-2.93-2.929-7.678-2.929-10.607 0l-23.496 23.496c-43.961-41.385-101.061-64.864-161.631-66.298-62.824-1.489-123.091 20.856-169.609 62.917-3.072 2.778-3.311 7.52-.533 10.593 2.779 3.073 7.521 3.311 10.594.533 90.662-81.973 229.448-78.424 315.955 8.085 1.407 1.407 3.314 2.197 5.304 2.197s3.896-.79 5.304-2.197l23.416-23.416 53.216 53.215-42.046 42.046-7.46-7.461c-2.929-2.929-7.678-2.929-10.606 0-2.93 2.929-2.93 7.677-.001 10.606l7.461 7.461-37.259 37.259-7.46-7.461c-2.929-2.929-7.678-2.929-10.606 0-2.93 2.929-2.93 7.677-.001 10.606l7.461 7.461-37.26 37.26-7.461-7.461c-2.93-2.929-7.678-2.929-10.607 0s-2.929 7.678 0 10.606l7.461 7.462-37.26 37.26-7.461-7.461c-2.928-2.93-7.677-2.929-10.606 0s-2.929 7.678.001 10.606l7.461 7.461-37.26 37.26-7.461-7.461c-2.928-2.93-7.677-2.929-10.606 0s-2.929 7.678.001 10.606l7.461 7.461-37.26 37.26-7.461-7.461c-2.928-2.93-7.677-2.929-10.606 0s-2.929 7.678.001 10.606l7.461 7.461-37.26 37.26-7.461-7.461c-2.93-2.929-7.678-2.929-10.607 0s-2.929 7.678 0 10.606l7.461 7.461-9.312 9.312c-2.929 2.929-2.929 7.678 0 10.606 1.465 1.464 3.385 2.197 5.304 2.197s3.839-.732 5.304-2.197l14.61-14.61c.002-.002.003-.003.005-.005s.003-.003.005-.005l339.839-339.843c1.406-1.406 2.196-3.314 2.196-5.303s-.79-3.897-2.196-5.303z"/></svg>