<svg id="Capa_1" enable-background="new 0 0 512 512" height="512" viewBox="0 0 512 512" width="512" xmlns="http://www.w3.org/2000/svg"><path d="m70.13 7.5h30.305v466.695h-30.305z" fill="#da8659"/><path d="m411.565 7.5h30.305v466.695h-30.305z" fill="#da8659"/><path d="m70.13 453.992h30.305v20.203h-30.305z" fill="#c56e37"/><path d="m411.565 453.992h30.305v20.203h-30.305z" fill="#c56e37"/><path d="m240.848 267.112h30.305v444.472h-30.305z" fill="#da8659" transform="matrix(0 1 -1 0 745.348 233.348)"/><path d="m462.073 474.195v9.091c0 3.347-2.714 6.061-6.061 6.061h-422.248v15.153h444.472v-30.305z" fill="#c56e37"/><path d="m273.173 40.835c-9.484 0-17.173 7.688-17.173 17.173v26.264c0 9.484 7.689 17.173 17.173 17.173s17.173-7.688 17.173-17.173v-26.264c0-9.484-7.689-17.173-17.173-17.173z" fill="#fc8086"/><path d="m273.173 40.835c-2.723 0-5.289.651-7.576 1.779 5.68 2.801 9.597 8.632 9.597 15.394v26.264c0 6.761-3.917 12.593-9.597 15.394 2.288 1.128 4.853 1.779 7.576 1.779 9.484 0 17.173-7.688 17.173-17.173v-26.264c0-9.484-7.689-17.173-17.173-17.173z" fill="#fa4954"/><path d="m307.518 40.835c-9.484 0-17.173 7.688-17.173 17.173v26.264c0 9.484 7.689 17.173 17.173 17.173s17.173-7.688 17.173-17.173v-26.264c0-9.484-7.688-17.173-17.173-17.173z" fill="#fc8086"/><path d="m307.518 40.835c-2.723 0-5.289.651-7.576 1.779 5.68 2.801 9.597 8.632 9.597 15.394v26.264c0 6.761-3.917 12.593-9.597 15.394 2.288 1.128 4.853 1.779 7.576 1.779 9.484 0 17.173-7.688 17.173-17.173v-26.264c0-9.484-7.688-17.173-17.173-17.173z" fill="#fa4954"/><path d="m341.864 40.835c-9.484 0-17.173 7.688-17.173 17.173v26.264c0 9.484 7.688 17.173 17.173 17.173 9.484 0 17.173-7.688 17.173-17.173v-26.264c0-9.484-7.689-17.173-17.173-17.173z" fill="#fc8086"/><path d="m341.864 40.835c-2.723 0-5.289.651-7.576 1.779 5.68 2.801 9.597 8.632 9.597 15.394v26.264c0 6.761-3.917 12.593-9.597 15.394 2.288 1.128 4.853 1.779 7.576 1.779 9.484 0 17.173-7.688 17.173-17.173v-26.264c0-9.484-7.689-17.173-17.173-17.173z" fill="#fa4954"/><path d="m273.173 148.923c-9.484 0-17.173 7.688-17.173 17.173v26.264c0 9.484 7.689 17.173 17.173 17.173s17.173-7.688 17.173-17.173v-26.264c0-9.485-7.689-17.173-17.173-17.173z" fill="#fcdd2e"/><path d="m273.173 148.923c-2.723 0-5.289.651-7.576 1.779 5.68 2.801 9.597 8.633 9.597 15.394v26.264c0 6.761-3.917 12.592-9.597 15.394 2.288 1.128 4.853 1.779 7.576 1.779 9.484 0 17.173-7.688 17.173-17.173v-26.264c0-9.485-7.689-17.173-17.173-17.173z" fill="#f9c301"/><path d="m238.827 148.923c-9.484 0-17.173 7.688-17.173 17.173v26.264c0 9.484 7.689 17.173 17.173 17.173s17.173-7.689 17.173-17.173v-26.264c0-9.485-7.688-17.173-17.173-17.173z" fill="#fcdd2e"/><path d="m238.827 148.923c-2.723 0-5.289.651-7.576 1.779 5.68 2.801 9.597 8.633 9.597 15.394v26.264c0 6.761-3.917 12.592-9.597 15.394 2.288 1.128 4.853 1.779 7.576 1.779 9.484 0 17.173-7.688 17.173-17.173v-26.264c0-9.485-7.688-17.173-17.173-17.173z" fill="#f9c301"/><path d="m170.136 148.923c-9.484 0-17.173 7.688-17.173 17.173v26.264c0 9.484 7.688 17.173 17.173 17.173 9.484 0 17.173-7.688 17.173-17.173v-26.264c0-9.485-7.689-17.173-17.173-17.173z" fill="#fcdd2e"/><path d="m170.136 148.923c-2.723 0-5.289.651-7.576 1.779 5.68 2.801 9.597 8.633 9.597 15.394v26.264c0 6.761-3.917 12.592-9.597 15.394 2.288 1.128 4.853 1.779 7.576 1.779 9.484 0 17.173-7.688 17.173-17.173v-26.264c0-9.485-7.689-17.173-17.173-17.173z" fill="#f9c301"/><path d="m307.518 148.923c-9.484 0-17.173 7.688-17.173 17.173v26.264c0 9.484 7.689 17.173 17.173 17.173s17.173-7.688 17.173-17.173v-26.264c0-9.485-7.688-17.173-17.173-17.173z" fill="#fcdd2e"/><path d="m307.518 148.923c-2.723 0-5.289.651-7.576 1.779 5.68 2.801 9.597 8.633 9.597 15.394v26.264c0 6.761-3.917 12.592-9.597 15.394 2.288 1.128 4.853 1.779 7.576 1.779 9.484 0 17.173-7.688 17.173-17.173v-26.264c0-9.485-7.688-17.173-17.173-17.173z" fill="#f9c301"/><path d="m341.864 148.923c-9.484 0-17.173 7.688-17.173 17.173v26.264c0 9.484 7.688 17.173 17.173 17.173 9.484 0 17.173-7.688 17.173-17.173v-26.264c0-9.485-7.689-17.173-17.173-17.173z" fill="#fcdd2e"/><path d="m341.864 148.923c-2.723 0-5.289.651-7.576 1.779 5.68 2.801 9.597 8.633 9.597 15.394v26.264c0 6.761-3.917 12.592-9.597 15.394 2.288 1.128 4.853 1.779 7.576 1.779 9.484 0 17.173-7.688 17.173-17.173v-26.264c0-9.485-7.689-17.173-17.173-17.173z" fill="#f9c301"/><path d="m307.518 257.01c-9.484 0-17.173 7.688-17.173 17.173v26.264c0 9.484 7.689 17.173 17.173 17.173s17.173-7.688 17.173-17.173v-26.264c0-9.484-7.688-17.173-17.173-17.173z" fill="#6df3bf"/><path d="m307.518 257.01c-2.723 0-5.289.651-7.576 1.779 5.68 2.801 9.597 8.632 9.597 15.394v26.264c0 6.761-3.917 12.593-9.597 15.394 2.288 1.128 4.853 1.779 7.576 1.779 9.484 0 17.173-7.688 17.173-17.173v-26.264c0-9.484-7.688-17.173-17.173-17.173z" fill="#05e29a"/><path d="m341.864 257.01c-9.484 0-17.173 7.688-17.173 17.173v26.264c0 9.484 7.688 17.173 17.173 17.173 9.484 0 17.173-7.688 17.173-17.173v-26.264c0-9.484-7.689-17.173-17.173-17.173z" fill="#6df3bf"/><path d="m341.864 257.01c-2.723 0-5.289.651-7.576 1.779 5.68 2.801 9.597 8.632 9.597 15.394v26.264c0 6.761-3.917 12.593-9.597 15.394 2.288 1.128 4.853 1.779 7.576 1.779 9.484 0 17.173-7.688 17.173-17.173v-26.264c0-9.484-7.689-17.173-17.173-17.173z" fill="#05e29a"/><path d="m170.136 257.01c-9.484 0-17.173 7.688-17.173 17.173v26.264c0 9.484 7.688 17.173 17.173 17.173 9.484 0 17.173-7.688 17.173-17.173v-26.264c0-9.484-7.689-17.173-17.173-17.173z" fill="#6df3bf"/><path d="m170.136 257.01c-2.723 0-5.289.651-7.576 1.779 5.68 2.801 9.597 8.632 9.597 15.394v26.264c0 6.761-3.917 12.593-9.597 15.394 2.288 1.128 4.853 1.779 7.576 1.779 9.484 0 17.173-7.688 17.173-17.173v-26.264c0-9.484-7.689-17.173-17.173-17.173z" fill="#05e29a"/><path d="m204.482 257.01c-9.484 0-17.173 7.688-17.173 17.173v26.264c0 9.484 7.688 17.173 17.173 17.173s17.173-7.688 17.173-17.173v-26.264c-.001-9.484-7.689-17.173-17.173-17.173z" fill="#6df3bf"/><path d="m204.482 257.01c-2.723 0-5.289.651-7.576 1.779 5.68 2.801 9.597 8.632 9.597 15.394v26.264c0 6.761-3.917 12.593-9.597 15.394 2.288 1.128 4.853 1.779 7.576 1.779 9.484 0 17.173-7.688 17.173-17.173v-26.264c-.001-9.484-7.689-17.173-17.173-17.173z" fill="#05e29a"/><path d="m238.827 257.01c-9.484 0-17.173 7.688-17.173 17.173v26.264c0 9.484 7.689 17.173 17.173 17.173s17.173-7.689 17.173-17.173v-26.264c0-9.484-7.688-17.173-17.173-17.173z" fill="#6df3bf"/><path d="m238.827 257.01c-2.723 0-5.289.651-7.576 1.779 5.68 2.801 9.597 8.632 9.597 15.394v26.264c0 6.761-3.917 12.593-9.597 15.394 2.288 1.128 4.853 1.779 7.576 1.779 9.484 0 17.173-7.688 17.173-17.173v-26.264c0-9.484-7.688-17.173-17.173-17.173z" fill="#05e29a"/><path d="m273.173 365.098c-9.484 0-17.173 7.688-17.173 17.173v26.264c0 9.484 7.689 17.173 17.173 17.173s17.173-7.688 17.173-17.173v-26.265c0-9.484-7.689-17.172-17.173-17.172z" fill="#fc8086"/><path d="m273.173 365.098c-2.723 0-5.289.651-7.576 1.779 5.68 2.801 9.597 8.633 9.597 15.394v26.264c0 6.761-3.917 12.592-9.597 15.394 2.288 1.128 4.853 1.779 7.576 1.779 9.484 0 17.173-7.688 17.173-17.173v-26.265c0-9.484-7.689-17.172-17.173-17.172z" fill="#fa4954"/><path d="m307.518 365.098c-9.484 0-17.173 7.688-17.173 17.173v26.264c0 9.484 7.689 17.173 17.173 17.173s17.173-7.688 17.173-17.173v-26.265c0-9.484-7.688-17.172-17.173-17.172z" fill="#fc8086"/><path d="m307.518 365.098c-2.723 0-5.289.651-7.576 1.779 5.68 2.801 9.597 8.633 9.597 15.394v26.264c0 6.761-3.917 12.592-9.597 15.394 2.288 1.128 4.853 1.779 7.576 1.779 9.484 0 17.173-7.688 17.173-17.173v-26.265c0-9.484-7.688-17.172-17.173-17.172z" fill="#fa4954"/><path d="m341.864 365.098c-9.484 0-17.173 7.688-17.173 17.173v26.264c0 9.484 7.688 17.173 17.173 17.173 9.484 0 17.173-7.688 17.173-17.173v-26.265c0-9.484-7.689-17.172-17.173-17.172z" fill="#fc8086"/><path d="m341.864 365.098c-2.723 0-5.289.651-7.576 1.779 5.68 2.801 9.597 8.633 9.597 15.394v26.264c0 6.761-3.917 12.592-9.597 15.394 2.288 1.128 4.853 1.779 7.576 1.779 9.484 0 17.173-7.688 17.173-17.173v-26.265c0-9.484-7.689-17.172-17.173-17.172z" fill="#fa4954"/><path d="m478.236 466.695h-28.866v-78.364c0-4.142-3.358-7.5-7.5-7.5s-7.5 3.358-7.5 7.5v78.364h-15.305v-451.695h15.305v337.976c0 4.142 3.358 7.5 7.5 7.5s7.5-3.358 7.5-7.5v-345.476c0-4.142-3.358-7.5-7.5-7.5h-30.305c-4.142 0-7.5 3.358-7.5 7.5v56.14h-37.528v-5.632c0-13.604-11.068-24.673-24.673-24.673-6.671 0-12.727 2.666-17.173 6.982-4.445-4.316-10.502-6.982-17.173-6.982s-12.727 2.666-17.172 6.982c-4.445-4.316-10.502-6.982-17.173-6.982-13.604 0-24.673 11.068-24.673 24.673v5.632h-140.565v-56.14c0-4.142-3.358-7.5-7.5-7.5h-30.305c-4.142 0-7.5 3.358-7.5 7.5v132.332c0 4.142 3.358 7.5 7.5 7.5s7.5-3.358 7.5-7.5v-124.832h15.305v451.695h-15.305v-291.508c0-4.142-3.358-7.5-7.5-7.5s-7.5 3.358-7.5 7.5v291.508h-28.866c-4.142 0-7.5 3.358-7.5 7.5v30.305c0 4.142 3.358 7.5 7.5 7.5h444.472c4.142 0 7.5-3.358 7.5-7.5v-30.305c0-4.142-3.358-7.5-7.5-7.5zm-146.045-84.424c0-5.333 4.339-9.673 9.673-9.673s9.673 4.339 9.673 9.673v26.264c0 5.333-4.339 9.673-9.673 9.673s-9.673-4.339-9.673-9.673zm9.673-24.673c-6.671 0-12.727 2.665-17.173 6.982-4.445-4.316-10.502-6.982-17.173-6.982s-12.727 2.665-17.172 6.982c-4.445-4.316-10.502-6.982-17.173-6.982-13.604 0-24.673 11.068-24.673 24.673v5.632h-140.565v-93.087h37.528v5.632c0 13.604 11.068 24.673 24.673 24.673 6.671 0 12.727-2.665 17.173-6.982 4.445 4.316 10.502 6.982 17.173 6.982s12.727-2.665 17.172-6.982c4.445 4.316 10.502 6.982 17.173 6.982 13.604 0 24.673-11.068 24.673-24.673v-5.632h19.346v5.632c0 13.604 11.068 24.673 24.672 24.673 6.671 0 12.727-2.665 17.173-6.982 4.445 4.316 10.502 6.982 17.173 6.982 13.604 0 24.673-11.068 24.673-24.673v-5.632h37.528v93.087h-37.528v-5.632c0-13.605-11.069-24.673-24.673-24.673zm-44.018 24.673c0-5.333 4.339-9.673 9.672-9.673s9.673 4.339 9.673 9.673v26.264c0 5.333-4.339 9.673-9.673 9.673s-9.672-4.339-9.672-9.673zm-34.346 0c0-5.333 4.339-9.673 9.673-9.673s9.673 4.339 9.673 9.673v26.264c0 5.333-4.339 9.673-9.673 9.673s-9.673-4.339-9.673-9.673zm-83.691-189.911c0 5.333-4.339 9.673-9.673 9.673s-9.673-4.339-9.673-9.673v-26.264c0-5.333 4.339-9.673 9.673-9.673s9.673 4.339 9.673 9.673zm-9.673 24.673c13.604 0 24.673-11.068 24.673-24.673v-5.632h19.345v5.632c0 13.604 11.068 24.673 24.673 24.673 6.671 0 12.727-2.665 17.173-6.982 4.445 4.316 10.502 6.982 17.173 6.982s12.727-2.665 17.173-6.982c4.445 4.316 10.502 6.982 17.172 6.982 6.671 0 12.727-2.665 17.173-6.982 4.445 4.316 10.502 6.982 17.173 6.982 13.604 0 24.673-11.068 24.673-24.673v-5.632h37.528v93.087h-37.528v-5.632c0-13.604-11.068-24.673-24.673-24.673-6.671 0-12.727 2.665-17.173 6.982-4.445-4.316-10.502-6.982-17.173-6.982-13.604 0-24.672 11.068-24.672 24.673v5.632h-19.346v-5.632c0-13.604-11.068-24.673-24.673-24.673-6.671 0-12.727 2.665-17.173 6.982-4.445-4.316-10.502-6.982-17.172-6.982-6.671 0-12.727 2.665-17.173 6.982-4.445-4.316-10.502-6.982-17.173-6.982-13.604 0-24.673 11.068-24.673 24.673v5.632h-37.528v-93.087h37.528v5.632c0 13.604 11.069 24.673 24.673 24.673zm78.364-24.673c0 5.333-4.339 9.673-9.673 9.673s-9.673-4.339-9.673-9.673v-26.264c0-5.333 4.339-9.673 9.673-9.673s9.673 4.339 9.673 9.673zm34.346 0c0 5.333-4.339 9.673-9.673 9.673s-9.673-4.339-9.673-9.673v-26.264c0-5.333 4.339-9.673 9.673-9.673s9.673 4.339 9.673 9.673zm34.345 0c0 5.333-4.339 9.673-9.673 9.673s-9.672-4.339-9.672-9.673v-26.264c0-5.333 4.339-9.673 9.672-9.673s9.673 4.339 9.673 9.673zm34.346 0c0 5.333-4.339 9.673-9.673 9.673s-9.673-4.339-9.673-9.673v-26.264c0-5.333 4.339-9.673 9.673-9.673s9.673 4.339 9.673 9.673zm-19.346 81.823c0-5.333 4.339-9.673 9.673-9.673s9.673 4.339 9.673 9.673v26.264c0 5.333-4.339 9.673-9.673 9.673s-9.673-4.339-9.673-9.673zm-34.345 0c0-5.333 4.339-9.673 9.672-9.673s9.673 4.339 9.673 9.673v26.264c0 5.333-4.339 9.673-9.673 9.673s-9.672-4.339-9.672-9.673zm-68.692 0c0-5.333 4.339-9.673 9.673-9.673s9.673 4.339 9.673 9.673v26.264c0 5.333-4.339 9.673-9.673 9.673s-9.673-4.339-9.673-9.673zm-34.345 0c0-5.333 4.339-9.673 9.673-9.673s9.672 4.339 9.672 9.673v26.264c0 5.333-4.339 9.673-9.672 9.673s-9.673-4.339-9.673-9.673zm-34.346 0c0-5.333 4.339-9.673 9.673-9.673s9.673 4.339 9.673 9.673v26.264c0 5.333-4.339 9.673-9.673 9.673s-9.673-4.339-9.673-9.673zm181.401-225.848c5.333 0 9.673 4.339 9.673 9.673v26.264c0 5.333-4.339 9.673-9.673 9.673s-9.673-4.339-9.673-9.673v-26.264c0-5.333 4.339-9.673 9.673-9.673zm-34.346 0c5.333 0 9.673 4.339 9.673 9.673v26.264c0 5.333-4.339 9.673-9.673 9.673s-9.672-4.339-9.672-9.673v-26.264c0-5.333 4.339-9.673 9.672-9.673zm-44.018 9.673c0-5.333 4.339-9.673 9.673-9.673s9.673 4.339 9.673 9.673v26.264c0 5.333-4.339 9.673-9.673 9.673s-9.673-4.339-9.673-9.673zm-15 20.632v5.632c0 13.604 11.068 24.673 24.673 24.673 6.671 0 12.727-2.665 17.173-6.982 4.445 4.316 10.502 6.982 17.172 6.982 6.671 0 12.727-2.665 17.173-6.982 4.445 4.316 10.502 6.982 17.173 6.982 13.604 0 24.673-11.068 24.673-24.673v-5.632h37.528v93.087h-37.528v-5.632c0-13.604-11.068-24.673-24.673-24.673-6.671 0-12.727 2.665-17.173 6.982-4.445-4.316-10.502-6.982-17.173-6.982s-12.727 2.665-17.172 6.982c-4.445-4.316-10.502-6.982-17.173-6.982s-12.727 2.665-17.173 6.982c-4.445-4.316-10.502-6.982-17.173-6.982-13.604 0-24.673 11.068-24.673 24.673v5.632h-19.345v-5.632c0-13.604-11.068-24.673-24.673-24.673s-24.673 11.068-24.673 24.673v5.632h-37.528v-93.087zm-140.565 324.262h140.565v5.632c0 13.604 11.068 24.673 24.673 24.673 6.671 0 12.727-2.665 17.173-6.982 4.445 4.316 10.502 6.982 17.172 6.982 6.671 0 12.727-2.665 17.173-6.982 4.445 4.316 10.502 6.982 17.173 6.982 13.604 0 24.673-11.068 24.673-24.673v-5.632h37.528v63.793h-296.13zm362.801 94.098h-429.472v-15.305h429.472z"/></svg>