<svg id="Capa_1" enable-background="new 0 0 512 512" height="512" viewBox="0 0 512 512" width="512" xmlns="http://www.w3.org/2000/svg"><path d="m415.768 504.5h-319.536c-8.837 0-16-7.163-16-16v-465c0-8.837 7.163-16 16-16h319.537c8.837 0 16 7.163 16 16v465c-.001 8.837-7.164 16-16.001 16z" fill="#8f818f"/><path d="m415.606 7.5h-22.224c8.926 0 16.163 7.236 16.163 16.163v464.675c0 8.926-7.236 16.163-16.163 16.163h22.224c8.926 0 16.163-7.236 16.163-16.163v-464.675c-.001-8.927-7.237-16.163-16.163-16.163z" fill="#786e79"/><path d="m205.492-49.069h101.016v282.846h-101.016z" fill="#97e4f9" transform="matrix(0 1 -1 0 348.354 -163.646)"/><path d="m377.22 41.846v70.711c0 5.579-4.523 10.102-10.102 10.102h-252.541v20.203h282.846v-101.016z" fill="#0acefa"/><path d="m114.577 240.949v-40.61c0-5.523 4.477-10 10-10h40.61c5.523 0 10 4.477 10 10v40.61c0 5.523-4.477 10-10 10h-40.61c-5.523 0-10-4.477-10-10z" fill="#d6e4ea"/><path d="m165.085 190.339h-18.183c5.579 0 10.102 4.523 10.102 10.102v40.407c0 5.579-4.523 10.102-10.102 10.102h18.183c5.579 0 10.102-4.523 10.102-10.102v-40.407c0-5.579-4.523-10.102-10.102-10.102z" fill="#c2d0da"/><path d="m225.695 240.949v-40.61c0-5.523 4.477-10 10-10h40.61c5.523 0 10 4.477 10 10v40.61c0 5.523-4.477 10-10 10h-40.61c-5.523 0-10-4.477-10-10z" fill="#d6e4ea"/><path d="m276.203 190.339h-18.183c5.579 0 10.102 4.523 10.102 10.102v40.407c0 5.579-4.523 10.102-10.102 10.102h18.183c5.579 0 10.102-4.523 10.102-10.102v-40.407c0-5.579-4.523-10.102-10.102-10.102z" fill="#c2d0da"/><path d="m114.577 344.996v-40.61c0-5.523 4.477-10 10-10h40.61c5.523 0 10 4.477 10 10v40.61c0 5.523-4.477 10-10 10h-40.61c-5.523 0-10-4.477-10-10z" fill="#d6e4ea"/><path d="m165.085 294.386h-18.183c5.579 0 10.102 4.523 10.102 10.102v40.407c0 5.579-4.523 10.102-10.102 10.102h18.183c5.579 0 10.102-4.523 10.102-10.102v-40.407c0-5.579-4.523-10.102-10.102-10.102z" fill="#c2d0da"/><path d="m225.695 344.996v-40.61c0-5.523 4.477-10 10-10h40.61c5.523 0 10 4.477 10 10v40.61c0 5.523-4.477 10-10 10h-40.61c-5.523 0-10-4.477-10-10z" fill="#d6e4ea"/><path d="m276.203 294.386h-18.183c5.579 0 10.102 4.523 10.102 10.102v40.407c0 5.579-4.523 10.102-10.102 10.102h18.183c5.579 0 10.102-4.523 10.102-10.102v-40.407c0-5.579-4.523-10.102-10.102-10.102z" fill="#c2d0da"/><path d="m114.577 449.043v-40.61c0-5.523 4.477-10 10-10h40.61c5.523 0 10 4.477 10 10v40.61c0 5.523-4.477 10-10 10h-40.61c-5.523 0-10-4.477-10-10z" fill="#d6e4ea"/><path d="m165.085 398.433h-18.183c5.579 0 10.102 4.523 10.102 10.102v40.407c0 5.579-4.523 10.102-10.102 10.102h18.183c5.579 0 10.102-4.523 10.102-10.102v-40.407c0-5.579-4.523-10.102-10.102-10.102z" fill="#c2d0da"/><path d="m225.695 449.043v-40.61c0-5.523 4.477-10 10-10h40.61c5.523 0 10 4.477 10 10v40.61c0 5.523-4.477 10-10 10h-40.61c-5.523 0-10-4.477-10-10z" fill="#d6e4ea"/><path d="m276.203 398.433h-18.183c5.579 0 10.102 4.523 10.102 10.102v40.407c0 5.579-4.523 10.102-10.102 10.102h18.183c5.579 0 10.102-4.523 10.102-10.102v-40.407c0-5.579-4.523-10.102-10.102-10.102z" fill="#c2d0da"/><path d="m336.813 240.949v-40.61c0-5.523 4.477-10 10-10h40.61c5.523 0 10 4.477 10 10v40.61c0 5.523-4.477 10-10 10h-40.61c-5.523 0-10-4.477-10-10z" fill="#d6e4ea"/><path d="m387.321 190.339h-18.183c5.579 0 10.102 4.523 10.102 10.102v40.407c0 5.579-4.523 10.102-10.102 10.102h18.183c5.579 0 10.102-4.523 10.102-10.102v-40.407c0-5.579-4.523-10.102-10.102-10.102z" fill="#c2d0da"/><path d="m336.813 449.043v-144.657c0-5.523 4.477-10 10-10h40.61c5.523 0 10 4.477 10 10v144.657c0 5.523-4.477 10-10 10h-40.61c-5.523 0-10-4.477-10-10z" fill="#fba65c"/><path d="m387.321 294.386h-18.183c5.579 0 10.102 4.523 10.102 10.102v144.453c0 5.579-4.523 10.102-10.102 10.102h18.183c5.579 0 10.102-4.523 10.102-10.102v-144.453c0-5.579-4.523-10.102-10.102-10.102z" fill="#fb9538"/><path d="m404.923 41.846c0-4.142-3.358-7.5-7.5-7.5h-282.846c-4.142 0-7.5 3.358-7.5 7.5v101.016c0 4.142 3.358 7.5 7.5 7.5h282.846c4.142 0 7.5-3.358 7.5-7.5zm-15 93.516h-267.846v-86.016h267.846z"/><path d="m107.077 240.949c0 9.649 7.851 17.5 17.5 17.5h40.61c9.649 0 17.5-7.851 17.5-17.5v-40.61c0-9.649-7.851-17.5-17.5-17.5h-40.61c-9.649 0-17.5 7.851-17.5 17.5zm15-40.61c0-1.378 1.122-2.5 2.5-2.5h40.61c1.378 0 2.5 1.122 2.5 2.5v40.61c0 1.378-1.122 2.5-2.5 2.5h-40.61c-1.378 0-2.5-1.122-2.5-2.5z"/><path d="m293.805 200.339c0-9.649-7.851-17.5-17.5-17.5h-40.609c-9.649 0-17.5 7.851-17.5 17.5v40.61c0 9.649 7.851 17.5 17.5 17.5h40.609c9.649 0 17.5-7.851 17.5-17.5zm-15 40.61c0 1.378-1.122 2.5-2.5 2.5h-40.609c-1.378 0-2.5-1.122-2.5-2.5v-40.61c0-1.378 1.122-2.5 2.5-2.5h40.609c1.378 0 2.5 1.122 2.5 2.5z"/><path d="m107.077 344.996c0 9.649 7.851 17.5 17.5 17.5h40.61c9.649 0 17.5-7.851 17.5-17.5v-40.61c0-9.649-7.851-17.5-17.5-17.5h-40.61c-9.649 0-17.5 7.851-17.5 17.5zm15-40.61c0-1.378 1.122-2.5 2.5-2.5h40.61c1.378 0 2.5 1.122 2.5 2.5v40.61c0 1.378-1.122 2.5-2.5 2.5h-40.61c-1.378 0-2.5-1.122-2.5-2.5z"/><path d="m293.805 304.386c0-9.649-7.851-17.5-17.5-17.5h-40.609c-9.649 0-17.5 7.851-17.5 17.5v40.61c0 9.649 7.851 17.5 17.5 17.5h40.609c9.649 0 17.5-7.851 17.5-17.5zm-15 40.61c0 1.378-1.122 2.5-2.5 2.5h-40.609c-1.378 0-2.5-1.122-2.5-2.5v-40.61c0-1.378 1.122-2.5 2.5-2.5h40.609c1.378 0 2.5 1.122 2.5 2.5z"/><path d="m107.077 449.042c0 9.649 7.851 17.5 17.5 17.5h40.61c9.649 0 17.5-7.851 17.5-17.5v-40.609c0-9.649-7.851-17.5-17.5-17.5h-40.61c-9.649 0-17.5 7.851-17.5 17.5zm15-40.609c0-1.378 1.122-2.5 2.5-2.5h40.61c1.378 0 2.5 1.122 2.5 2.5v40.609c0 1.378-1.122 2.5-2.5 2.5h-40.61c-1.378 0-2.5-1.122-2.5-2.5z"/><path d="m276.305 390.933h-40.609c-9.649 0-17.5 7.851-17.5 17.5v40.609c0 9.649 7.851 17.5 17.5 17.5h40.609c9.649 0 17.5-7.851 17.5-17.5v-40.609c0-9.649-7.851-17.5-17.5-17.5zm2.5 58.109c0 1.378-1.122 2.5-2.5 2.5h-40.609c-1.378 0-2.5-1.122-2.5-2.5v-40.609c0-1.378 1.122-2.5 2.5-2.5h40.609c1.378 0 2.5 1.122 2.5 2.5z"/><path d="m404.923 200.339c0-9.649-7.851-17.5-17.5-17.5h-40.61c-9.649 0-17.5 7.851-17.5 17.5v40.61c0 9.649 7.851 17.5 17.5 17.5h40.61c9.649 0 17.5-7.851 17.5-17.5zm-15 40.61c0 1.378-1.122 2.5-2.5 2.5h-40.61c-1.378 0-2.5-1.122-2.5-2.5v-40.61c0-1.378 1.122-2.5 2.5-2.5h40.61c1.378 0 2.5 1.122 2.5 2.5z"/><path d="m336.813 359.618c-4.142 0-7.5 3.358-7.5 7.5v81.823c0 9.706 7.896 17.602 17.602 17.602h40.407c9.706 0 17.602-7.896 17.602-17.602v-144.453c0-9.706-7.896-17.602-17.602-17.602h-40.407c-9.706 0-17.602 7.896-17.602 17.602v27.274c0 4.142 3.358 7.5 7.5 7.5s7.5-3.358 7.5-7.5v-27.274c0-1.435 1.167-2.602 2.602-2.602h40.407c1.435 0 2.602 1.167 2.602 2.602v144.453c0 1.435-1.167 2.602-2.602 2.602h-40.407c-1.435 0-2.602-1.167-2.602-2.602v-81.823c0-4.142-3.358-7.5-7.5-7.5z"/><path d="m415.605 0h-319.21c-13.048 0-23.663 10.615-23.663 23.663v260.622c0 4.142 3.358 7.5 7.5 7.5s7.5-3.358 7.5-7.5v-260.622c0-4.776 3.886-8.663 8.663-8.663h319.211c4.776 0 8.663 3.886 8.663 8.663v123.24c0 4.142 3.358 7.5 7.5 7.5s7.5-3.358 7.5-7.5v-123.24c-.001-13.048-10.616-23.663-23.664-23.663z"/><path d="m431.768 174.758c-4.142 0-7.5 3.358-7.5 7.5v306.079c0 4.776-3.886 8.663-8.663 8.663h-319.21c-4.776 0-8.663-3.886-8.663-8.663v-168.697c0-4.142-3.358-7.5-7.5-7.5s-7.5 3.358-7.5 7.5v168.697c0 13.048 10.615 23.663 23.663 23.663h319.211c13.047 0 23.663-10.615 23.663-23.663v-306.079c-.001-4.142-3.359-7.5-7.501-7.5z"/></svg>